{"asset":{"version":"2.0","generator":"Atom XE Artemis Demo Generator"},"scene":0,"scenes":[{"nodes":[0]}],"nodes":[{"mesh":0,"name":"Artemis"}],"meshes":[{"name":"Artemis","primitives":[{"attributes":{"POSITION":0,"NORMAL":1},"indices":2,"material":0},{"attributes":{"POSITION":0,"NORMAL":1},"indices":3,"material":1},{"attributes":{"POSITION":0,"NORMAL":1},"indices":4,"material":2},{"attributes":{"POSITION":0,"NORMAL":1},"indices":5,"material":3}]}],"materials":[{"name":"Skin","pbrMetallicRoughness":{"baseColorFactor":[0.72,0.48,0.32,1],"roughnessFactor":0.75}},{"name":"Bronze","pbrMetallicRoughness":{"baseColorFactor":[0.72,0.46,0.16,1],"metallicFactor":0.65,"roughnessFactor":0.32}},{"name":"IvoryTunic","pbrMetallicRoughness":{"baseColorFactor":[0.86,0.86,0.80,1],"roughnessFactor":0.82}},{"name":"BlueAccent","pbrMetallicRoughness":{"baseColorFactor":[0.08,0.20,0.45,1],"roughnessFactor":0.5}}],"buffers":[{"byteLength":459312,"uri":"data:application/octet-stream;base64,_WITH_GENERATED_BUFFER"}],"bufferViews":[{"buffer":0,"byteOffset":0,"byteLength":196848,"target":34962},{"buffer":0,"byteOffset":196848,"byteLength":196848,"target":34962},{"buffer":0,"byteOffset":393696,"byteLength":16404,"target":34963},{"buffer":0,"byteOffset":410100,"byteLength":16392,"target":34963},{"buffer":0,"byteOffset":426492,"byteLength":16392,"target":34963},{"buffer":0,"byteOffset":442884,"byteLength":16428,"target":34963}],"accessors":[{"bufferView":0,"componentType":5126,"count":16404,"type":"VEC3","min":[-1.29,0.25,-0.68],"max":[1.29,3.72,0.68]},{"bufferView":1,"componentType":5126,"count":16404,"type":"VEC3"},{"bufferView":2,"componentType":5125,"count":4101,"type":"SCALAR"},{"bufferView":3,"componentType":5125,"count":4098,"type":"SCALAR"},{"bufferView":4,"componentType":5125,"count":4098,"type":"SCALAR"},{"bufferView":5,"componentType":5125,"count":4107,"type":"SCALAR"}]}